<svg t="1728695089371" class="icon" viewBox="0 0 1024 1024" version="1.1" xmlns="http://www.w3.org/2000/svg" p-id="8576" width="200" height="200"><path d="M927.808 838.4l-58.112-228.48a69.888 69.888 0 0 0-37.408-45.792l-112.576-54.528c31.36-29.088 66.336-63.68 80.864-78.176 12.608-12.576 17.248-31.104 12.096-48.128-6.176-20.448-62.272-201.6-125.344-272.896-43.872-49.6-98.336-72.896-137.12-83.744a113.088 113.088 0 0 0-40.8-7.616 117.088 117.088 0 0 0-43.04 9.28c-38.208 11.616-91.36 35.168-132.896 82.048-61.056 68.96-118.88 252-125.28 272.64a48.224 48.224 0 0 0 12.8 49.152c2.336 2.24 41.6 39.552 83.424 75.84L188.48 564.096a69.984 69.984 0 0 0-37.44 45.824L92.992 838.4a133.28 133.28 0 0 0 24.096 115.36 133.248 133.248 0 0 0 105.888 51.776h574.848c41.696 0 80.288-18.88 105.888-51.776a133.248 133.248 0 0 0 24.096-115.392zM292.48 683.296c0-20.16 16.384-36.544 36.544-36.544h362.656c20.16 0 36.576 16.384 36.576 36.544v217.92H292.48v-217.92z m323.424-213.792c-37.568 23.488-84.704 38.24-102.592 42.08-0.96 0.064-2.08 0.256-2.944 0.256-0.864 0-1.984-0.224-2.88-0.288-18.72-4.032-66.048-19.296-90.528-37.824-10.24-8.992-27.776-49.152-42.24-94.432 35.136-9.6 86.848-20.896 135.648-20.896 51.392 0 106.08 12.544 141.12 22.4-8.576 42.624-23.36 81.056-35.584 88.704z m-52.96 306.304c0 23.584-19.104 42.688-42.656 42.688h-21.344a42.656 42.656 0 1 1 0-85.344h21.344c23.552 0 42.656 19.104 42.656 42.656z" fill="#ffffff" p-id="8577"></path></svg>